<svg width="180" height="24" viewBox="0 0 290 24" fill="none" xmlns="http://www.w3.org/2000/svg">
<path d="M10 0.335449C4.47714 0.335449 0 5.31032 0 11.4472C0 17.584 4.47714 22.5589 10 22.5589C15.5229 22.5589 20 17.584 20 11.4472C20 5.31032 15.5229 0.335449 10 0.335449ZM13.2258 11.4472C13.2258 13.4236 11.7787 15.0316 10 15.0316C8.22129 15.0316 6.77419 13.4236 6.77419 11.4472C6.77419 9.47072 8.22129 7.86275 10 7.86275C11.7787 7.86275 13.2258 9.47072 13.2258 11.4472Z" fill="#2ECC71"/>
<path d="M40 0.335449C34.4771 0.335449 30 5.31032 30 11.4472C30 17.584 34.4771 22.5589 40 22.5589C45.5229 22.5589 50 17.584 50 11.4472C50 5.31032 45.5229 0.335449 40 0.335449ZM43.2258 11.4472C43.2258 13.4236 41.7787 15.0316 40 15.0316C38.2213 15.0316 36.7742 13.4236 36.7742 11.4472C36.7742 9.47072 38.2213 7.86275 40 7.86275C41.7787 7.86275 43.2258 9.47072 43.2258 11.4472Z" fill="#2ECC71"/>
<path d="M70 0.335449C64.4771 0.335449 60 5.31032 60 11.4472C60 17.584 64.4771 22.5589 70 22.5589C75.5229 22.5589 80 17.584 80 11.4472C80 5.31032 75.5229 0.335449 70 0.335449ZM73.2258 11.4472C73.2258 13.4236 71.7787 15.0316 70 15.0316C68.2213 15.0316 66.7742 13.4236 66.7742 11.4472C66.7742 9.47072 68.2213 7.86275 70 7.86275C71.7787 7.86275 73.2258 9.47072 73.2258 11.4472Z" fill="#2ECC71"/>
<path d="M100 0.335449C94.4771 0.335449 90 5.31032 90 11.4472C90 17.584 94.4771 22.5589 100 22.5589C105.523 22.5589 110 17.584 110 11.4472C110 5.31032 105.523 0.335449 100 0.335449ZM103.226 11.4472C103.226 13.4236 101.779 15.0316 100 15.0316C98.2213 15.0316 96.7742 13.4236 96.7742 11.4472C96.7742 9.47072 98.2213 7.86275 100 7.86275C101.779 7.86275 103.226 9.47072 103.226 11.4472Z" fill="#2ECC71"/>
<path d="M130 0.335449C124.477 0.335449 120 5.31032 120 11.4472C120 17.584 124.477 22.5589 130 22.5589C135.523 22.5589 140 17.584 140 11.4472C140 5.31032 135.523 0.335449 130 0.335449ZM133.226 11.4472C133.226 13.4236 131.779 15.0316 130 15.0316C128.221 15.0316 126.774 13.4236 126.774 11.4472C126.774 9.47072 128.221 7.86275 130 7.86275C131.779 7.86275 133.226 9.47072 133.226 11.4472Z" fill="#2ECC71"/>
<path d="M160 0.335449C154.477 0.335449 150 5.31032 150 11.4472C150 17.584 154.477 22.5589 160 22.5589C165.523 22.5589 170 17.584 170 11.4472C170 5.31032 165.523 0.335449 160 0.335449ZM163.226 11.4472C163.226 13.4236 161.779 15.0316 160 15.0316C158.221 15.0316 156.774 13.4236 156.774 11.4472C156.774 9.47072 158.221 7.86275 160 7.86275C161.779 7.86275 163.226 9.47072 163.226 11.4472Z" fill="#2ECC71"/>
<path d="M190 0.335449C184.477 0.335449 180 5.31032 180 11.4472C180 17.584 184.477 22.5589 190 22.5589C195.523 22.5589 200 17.584 200 11.4472C200 5.31032 195.523 0.335449 190 0.335449ZM193.226 11.4472C193.226 13.4236 191.779 15.0316 190 15.0316C188.221 15.0316 186.774 13.4236 186.774 11.4472C186.774 9.47072 188.221 7.86275 190 7.86275C191.779 7.86275 193.226 9.47072 193.226 11.4472Z" fill="white" fill-opacity="0.5"/>
<path d="M220 0.335449C214.477 0.335449 210 5.31032 210 11.4472C210 17.584 214.477 22.5589 220 22.5589C225.523 22.5589 230 17.584 230 11.4472C230 5.31032 225.523 0.335449 220 0.335449ZM223.226 11.4472C223.226 13.4236 221.779 15.0316 220 15.0316C218.221 15.0316 216.774 13.4236 216.774 11.4472C216.774 9.47072 218.221 7.86275 220 7.86275C221.779 7.86275 223.226 9.47072 223.226 11.4472Z" fill="white" fill-opacity="0.5"/>
<path d="M250 1.44678C244.477 1.44678 240 6.42165 240 12.5585C240 18.6954 244.477 23.6702 250 23.6702C255.523 23.6702 260 18.6954 260 12.5585C260 6.42165 255.523 1.44678 250 1.44678ZM253.226 12.5585C253.226 14.535 251.779 16.1429 250 16.1429C248.221 16.1429 246.774 14.535 246.774 12.5585C246.774 10.582 248.221 8.97407 250 8.97407C251.779 8.97407 253.226 10.582 253.226 12.5585Z" fill="white" fill-opacity="0.5"/>
<path d="M280 1.44678C274.477 1.44678 270 6.42165 270 12.5585C270 18.6954 274.477 23.6702 280 23.6702C285.523 23.6702 290 18.6954 290 12.5585C290 6.42165 285.523 1.44678 280 1.44678ZM283.226 12.5585C283.226 14.535 281.779 16.1429 280 16.1429C278.221 16.1429 276.774 14.535 276.774 12.5585C276.774 10.582 278.221 8.97407 280 8.97407C281.779 8.97407 283.226 10.582 283.226 12.5585Z" fill="white" fill-opacity="0.5"/>
</svg>
