<svg width="180" height="24" viewBox="0 0 290 24" fill="none" xmlns="http://www.w3.org/2000/svg">
<path d="M10 0C4.47714 0 0 4.97487 0 11.1117C0 17.2486 4.47714 22.2234 10 22.2234C15.5229 22.2234 20 17.2486 20 11.1117C20 4.97487 15.5229 0 10 0ZM13.2258 11.1117C13.2258 13.0882 11.7787 14.6961 10 14.6961C8.22129 14.6961 6.77419 13.0882 6.77419 11.1117C6.77419 9.13527 8.22129 7.5273 10 7.5273C11.7787 7.5273 13.2258 9.13527 13.2258 11.1117Z" fill="#2ECC71"/>
<path d="M40 0C34.4771 0 30 4.97487 30 11.1117C30 17.2486 34.4771 22.2234 40 22.2234C45.5229 22.2234 50 17.2486 50 11.1117C50 4.97487 45.5229 0 40 0ZM43.2258 11.1117C43.2258 13.0882 41.7787 14.6961 40 14.6961C38.2213 14.6961 36.7742 13.0882 36.7742 11.1117C36.7742 9.13527 38.2213 7.5273 40 7.5273C41.7787 7.5273 43.2258 9.13527 43.2258 11.1117Z" fill="#2ECC71"/>
<path d="M70 0C64.4771 0 60 4.97487 60 11.1117C60 17.2486 64.4771 22.2234 70 22.2234C75.5229 22.2234 80 17.2486 80 11.1117C80 4.97487 75.5229 0 70 0ZM73.2258 11.1117C73.2258 13.0882 71.7787 14.6961 70 14.6961C68.2213 14.6961 66.7742 13.0882 66.7742 11.1117C66.7742 9.13527 68.2213 7.5273 70 7.5273C71.7787 7.5273 73.2258 9.13527 73.2258 11.1117Z" fill="#2ECC71"/>
<path d="M100 0C94.4771 0 90 4.97487 90 11.1117C90 17.2486 94.4771 22.2234 100 22.2234C105.523 22.2234 110 17.2486 110 11.1117C110 4.97487 105.523 0 100 0ZM103.226 11.1117C103.226 13.0882 101.779 14.6961 100 14.6961C98.2213 14.6961 96.7742 13.0882 96.7742 11.1117C96.7742 9.13527 98.2213 7.5273 100 7.5273C101.779 7.5273 103.226 9.13527 103.226 11.1117Z" fill="#2ECC71"/>
<path d="M130 0C124.477 0 120 4.97487 120 11.1117C120 17.2486 124.477 22.2234 130 22.2234C135.523 22.2234 140 17.2486 140 11.1117C140 4.97487 135.523 0 130 0ZM133.226 11.1117C133.226 13.0882 131.779 14.6961 130 14.6961C128.221 14.6961 126.774 13.0882 126.774 11.1117C126.774 9.13527 128.221 7.5273 130 7.5273C131.779 7.5273 133.226 9.13527 133.226 11.1117Z" fill="#2ECC71"/>
<path d="M160 0C154.477 0 150 4.97487 150 11.1117C150 17.2486 154.477 22.2234 160 22.2234C165.523 22.2234 170 17.2486 170 11.1117C170 4.97487 165.523 0 160 0ZM163.226 11.1117C163.226 13.0882 161.779 14.6961 160 14.6961C158.221 14.6961 156.774 13.0882 156.774 11.1117C156.774 9.13527 158.221 7.5273 160 7.5273C161.779 7.5273 163.226 9.13527 163.226 11.1117Z" fill="#2ECC71"/>
<path d="M190 0C184.477 0 180 4.97487 180 11.1117C180 17.2486 184.477 22.2234 190 22.2234C195.523 22.2234 200 17.2486 200 11.1117C200 4.97487 195.523 0 190 0ZM193.226 11.1117C193.226 13.0882 191.779 14.6961 190 14.6961C188.221 14.6961 186.774 13.0882 186.774 11.1117C186.774 9.13527 188.221 7.5273 190 7.5273C191.779 7.5273 193.226 9.13527 193.226 11.1117Z" fill="#2ECC71"/>
<path d="M220 0C214.477 0 210 4.97487 210 11.1117C210 17.2486 214.477 22.2234 220 22.2234C225.523 22.2234 230 17.2486 230 11.1117C230 4.97487 225.523 0 220 0ZM223.226 11.1117C223.226 13.0882 221.779 14.6961 220 14.6961C218.221 14.6961 216.774 13.0882 216.774 11.1117C216.774 9.13527 218.221 7.5273 220 7.5273C221.779 7.5273 223.226 9.13527 223.226 11.1117Z" fill="#2ECC71"/>
<path d="M250 1.11084C244.477 1.11084 240 6.08571 240 12.2226C240 18.3594 244.477 23.3343 250 23.3343C255.523 23.3343 260 18.3594 260 12.2226C260 6.08571 255.523 1.11084 250 1.11084ZM253.226 12.2226C253.226 14.199 251.779 15.807 250 15.807C248.221 15.807 246.774 14.199 246.774 12.2226C246.774 10.2461 248.221 8.63814 250 8.63814C251.779 8.63814 253.226 10.2461 253.226 12.2226Z" fill="#2ECC71"/>
<path d="M280 1.11084C274.477 1.11084 270 6.08571 270 12.2226C270 18.3594 274.477 23.3343 280 23.3343C285.523 23.3343 290 18.3594 290 12.2226C290 6.08571 285.523 1.11084 280 1.11084ZM283.226 12.2226C283.226 14.199 281.779 15.807 280 15.807C278.221 15.807 276.774 14.199 276.774 12.2226C276.774 10.2461 278.221 8.63814 280 8.63814C281.779 8.63814 283.226 10.2461 283.226 12.2226Z" fill="#2ECC71"/>
</svg>
