<svg xmlns="http://www.w3.org/2000/svg" version="1.1" xmlns:xlink="http://www.w3.org/1999/xlink" xmlns:svgjs="http://svgjs.dev/svgjs" width="1440" height="560" preserveAspectRatio="none" viewBox="0 0 1440 560"><g mask="url(&quot;#SvgjsMask1000&quot;)" fill="none"><rect width="1440" height="560" x="0" y="0" fill="rgba(18, 27, 31, 1)"></rect><path d="M-99.35 410.16L-99.35 410.16" stroke="rgba(44, 56, 83, 1)" stroke-width="1.5"></path><path d="M-99.35 410.16L-61.29 504.95" stroke="rgba(44, 56, 83, 1)" stroke-width="1.5"></path><path d="M-99.35 410.16L65.69 362.23" stroke="rgba(44, 56, 83, 1)" stroke-width="1.5"></path><path d="M-99.35 410.16L54.19 490.08" stroke="rgba(44, 56, 83, 1)" stroke-width="1.5"></path><path d="M-61.29 504.95L-61.29 504.95" stroke="rgba(44, 56, 83, 1)" stroke-width="1.5"></path><path d="M-61.29 504.95L54.19 490.08" stroke="rgba(44, 56, 83, 1)" stroke-width="1.5"></path><path d="M-61.29 504.95L-55.3 679.86" stroke="rgba(44, 56, 83, 1)" stroke-width="1.5"></path><path d="M-61.29 504.95L65.69 362.23" stroke="rgba(44, 56, 83, 1)" stroke-width="1.5"></path><path d="M-61.29 504.95L59.02 656.07" stroke="rgba(44, 56, 83, 1)" stroke-width="1.5"></path><path d="M-55.3 679.86L-55.3 679.86" stroke="rgba(44, 56, 83, 1)" stroke-width="1.5"></path><path d="M-55.3 679.86L59.02 656.07" stroke="rgba(44, 56, 83, 1)" stroke-width="1.5"></path><path d="M65.69 362.23L65.69 362.23" stroke="rgba(44, 56, 83, 1)" stroke-width="1.5"></path><path d="M65.69 362.23L54.19 490.08" stroke="rgba(44, 56, 83, 1)" stroke-width="1.5"></path><path d="M65.69 362.23L202.53 508.49" stroke="rgba(44, 56, 83, 1)" stroke-width="1.5"></path><path d="M65.69 362.23L59.02 656.07" stroke="rgba(44, 56, 83, 1)" stroke-width="1.5"></path><path d="M54.19 490.08L54.19 490.08" stroke="rgba(44, 56, 83, 1)" stroke-width="1.5"></path><path d="M59.02 656.07L59.02 656.07" stroke="rgba(44, 56, 83, 1)" stroke-width="1.5"></path><path d="M59.02 656.07L224.08 662.81" stroke="rgba(44, 56, 83, 1)" stroke-width="1.5"></path><path d="M59.02 656.07L54.19 490.08" stroke="rgba(44, 56, 83, 1)" stroke-width="1.5"></path><path d="M59.02 656.07L202.53 508.49" stroke="rgba(44, 56, 83, 1)" stroke-width="1.5"></path><path d="M202.53 508.49L202.53 508.49" stroke="rgba(44, 56, 83, 1)" stroke-width="1.5"></path><path d="M202.53 508.49L54.19 490.08" stroke="rgba(44, 56, 83, 1)" stroke-width="1.5"></path><path d="M202.53 508.49L224.08 662.81" stroke="rgba(44, 56, 83, 1)" stroke-width="1.5"></path><path d="M202.53 508.49L404.07 551.83" stroke="rgba(44, 56, 83, 1)" stroke-width="1.5"></path><path d="M224.08 662.81L224.08 662.81" stroke="rgba(44, 56, 83, 1)" stroke-width="1.5"></path><path d="M224.08 662.81L373.91 638.08" stroke="rgba(44, 56, 83, 1)" stroke-width="1.5"></path><path d="M224.08 662.81L404.07 551.83" stroke="rgba(44, 56, 83, 1)" stroke-width="1.5"></path><path d="M392.64 348.87L392.64 348.87" stroke="rgba(44, 56, 83, 1)" stroke-width="1.5"></path><path d="M392.64 348.87L540.43 402.67" stroke="rgba(44, 56, 83, 1)" stroke-width="1.5"></path><path d="M392.64 348.87L507.77 503.92" stroke="rgba(44, 56, 83, 1)" stroke-width="1.5"></path><path d="M392.64 348.87L404.07 551.83" stroke="rgba(44, 56, 83, 1)" stroke-width="1.5"></path><path d="M392.64 348.87L202.53 508.49" stroke="rgba(44, 56, 83, 1)" stroke-width="1.5"></path><path d="M404.07 551.83L404.07 551.83" stroke="rgba(44, 56, 83, 1)" stroke-width="1.5"></path><path d="M404.07 551.83L373.91 638.08" stroke="rgba(44, 56, 83, 1)" stroke-width="1.5"></path><path d="M404.07 551.83L507.77 503.92" stroke="rgba(44, 56, 83, 1)" stroke-width="1.5"></path><path d="M404.07 551.83L552.49 688.55" stroke="rgba(44, 56, 83, 1)" stroke-width="1.5"></path><path d="M373.91 638.08L373.91 638.08" stroke="rgba(44, 56, 83, 1)" stroke-width="1.5"></path><path d="M373.91 638.08L552.49 688.55" stroke="rgba(44, 56, 83, 1)" stroke-width="1.5"></path><path d="M540.43 402.67L540.43 402.67" stroke="rgba(44, 56, 83, 1)" stroke-width="1.5"></path><path d="M540.43 402.67L507.77 503.92" stroke="rgba(44, 56, 83, 1)" stroke-width="1.5"></path><path d="M540.43 402.67L670.6 400.77" stroke="rgba(44, 56, 83, 1)" stroke-width="1.5"></path><path d="M540.43 402.67L648.56 561.27" stroke="rgba(44, 56, 83, 1)" stroke-width="1.5"></path><path d="M507.77 503.92L507.77 503.92" stroke="rgba(44, 56, 83, 1)" stroke-width="1.5"></path><path d="M507.77 503.92L648.56 561.27" stroke="rgba(44, 56, 83, 1)" stroke-width="1.5"></path><path d="M507.77 503.92L373.91 638.08" stroke="rgba(44, 56, 83, 1)" stroke-width="1.5"></path><path d="M507.77 503.92L552.49 688.55" stroke="rgba(44, 56, 83, 1)" stroke-width="1.5"></path><path d="M507.77 503.92L670.6 400.77" stroke="rgba(44, 56, 83, 1)" stroke-width="1.5"></path><path d="M552.49 688.55L552.49 688.55" stroke="rgba(44, 56, 83, 1)" stroke-width="1.5"></path><path d="M552.49 688.55L647.81 642" stroke="rgba(44, 56, 83, 1)" stroke-width="1.5"></path><path d="M552.49 688.55L648.56 561.27" stroke="rgba(44, 56, 83, 1)" stroke-width="1.5"></path><path d="M688.57 244.81L688.57 244.81" stroke="rgba(44, 56, 83, 1)" stroke-width="1.5"></path><path d="M688.57 244.81L824.01 204.94" stroke="rgba(44, 56, 83, 1)" stroke-width="1.5"></path><path d="M688.57 244.81L670.6 400.77" stroke="rgba(44, 56, 83, 1)" stroke-width="1.5"></path><path d="M670.6 400.77L670.6 400.77" stroke="rgba(44, 56, 83, 1)" stroke-width="1.5"></path><path d="M670.6 400.77L648.56 561.27" stroke="rgba(44, 56, 83, 1)" stroke-width="1.5"></path><path d="M670.6 400.77L829.26 353.54" stroke="rgba(44, 56, 83, 1)" stroke-width="1.5"></path><path d="M648.56 561.27L648.56 561.27" stroke="rgba(44, 56, 83, 1)" stroke-width="1.5"></path><path d="M648.56 561.27L647.81 642" stroke="rgba(44, 56, 83, 1)" stroke-width="1.5"></path><path d="M647.81 642L647.81 642" stroke="rgba(44, 56, 83, 1)" stroke-width="1.5"></path><path d="M647.81 642L841.47 667.26" stroke="rgba(44, 56, 83, 1)" stroke-width="1.5"></path><path d="M647.81 642L507.77 503.92" stroke="rgba(44, 56, 83, 1)" stroke-width="1.5"></path><path d="M647.81 642L856.61 558.83" stroke="rgba(44, 56, 83, 1)" stroke-width="1.5"></path><path d="M838.89 104.92L838.89 104.92" stroke="rgba(44, 56, 83, 1)" stroke-width="1.5"></path><path d="M838.89 104.92L824.01 204.94" stroke="rgba(44, 56, 83, 1)" stroke-width="1.5"></path><path d="M838.89 104.92L990.93 37.6" stroke="rgba(44, 56, 83, 1)" stroke-width="1.5"></path><path d="M838.89 104.92L688.57 244.81" stroke="rgba(44, 56, 83, 1)" stroke-width="1.5"></path><path d="M838.89 104.92L984.86 -40.05" stroke="rgba(44, 56, 83, 1)" stroke-width="1.5"></path><path d="M824.01 204.94L824.01 204.94" stroke="rgba(44, 56, 83, 1)" stroke-width="1.5"></path><path d="M824.01 204.94L829.26 353.54" stroke="rgba(44, 56, 83, 1)" stroke-width="1.5"></path><path d="M824.01 204.94L991.56 254.02" stroke="rgba(44, 56, 83, 1)" stroke-width="1.5"></path><path d="M829.26 353.54L829.26 353.54" stroke="rgba(44, 56, 83, 1)" stroke-width="1.5"></path><path d="M829.26 353.54L982.48 395.25" stroke="rgba(44, 56, 83, 1)" stroke-width="1.5"></path><path d="M829.26 353.54L688.57 244.81" stroke="rgba(44, 56, 83, 1)" stroke-width="1.5"></path><path d="M856.61 558.83L856.61 558.83" stroke="rgba(44, 56, 83, 1)" stroke-width="1.5"></path><path d="M856.61 558.83L841.47 667.26" stroke="rgba(44, 56, 83, 1)" stroke-width="1.5"></path><path d="M856.61 558.83L946.11 489.49" stroke="rgba(44, 56, 83, 1)" stroke-width="1.5"></path><path d="M856.61 558.83L969.08 649.62" stroke="rgba(44, 56, 83, 1)" stroke-width="1.5"></path><path d="M856.61 558.83L982.48 395.25" stroke="rgba(44, 56, 83, 1)" stroke-width="1.5"></path><path d="M856.61 558.83L829.26 353.54" stroke="rgba(44, 56, 83, 1)" stroke-width="1.5"></path><path d="M841.47 667.26L841.47 667.26" stroke="rgba(44, 56, 83, 1)" stroke-width="1.5"></path><path d="M841.47 667.26L969.08 649.62" stroke="rgba(44, 56, 83, 1)" stroke-width="1.5"></path><path d="M984.86 -40.05L984.86 -40.05" stroke="rgba(44, 56, 83, 1)" stroke-width="1.5"></path><path d="M984.86 -40.05L990.93 37.6" stroke="rgba(44, 56, 83, 1)" stroke-width="1.5"></path><path d="M984.86 -40.05L1095.59 -85.41" stroke="rgba(44, 56, 83, 1)" stroke-width="1.5"></path><path d="M984.86 -40.05L1104.23 61.92" stroke="rgba(44, 56, 83, 1)" stroke-width="1.5"></path><path d="M984.86 -40.05L1120.87 201.86" stroke="rgba(44, 56, 83, 1)" stroke-width="1.5"></path><path d="M990.93 37.6L990.93 37.6" stroke="rgba(44, 56, 83, 1)" stroke-width="1.5"></path><path d="M990.93 37.6L1104.23 61.92" stroke="rgba(44, 56, 83, 1)" stroke-width="1.5"></path><path d="M990.93 37.6L1095.59 -85.41" stroke="rgba(44, 56, 83, 1)" stroke-width="1.5"></path><path d="M990.93 37.6L1120.87 201.86" stroke="rgba(44, 56, 83, 1)" stroke-width="1.5"></path><path d="M991.56 254.02L991.56 254.02" stroke="rgba(44, 56, 83, 1)" stroke-width="1.5"></path><path d="M991.56 254.02L1120.87 201.86" stroke="rgba(44, 56, 83, 1)" stroke-width="1.5"></path><path d="M991.56 254.02L982.48 395.25" stroke="rgba(44, 56, 83, 1)" stroke-width="1.5"></path><path d="M991.56 254.02L1123.47 341.19" stroke="rgba(44, 56, 83, 1)" stroke-width="1.5"></path><path d="M982.48 395.25L982.48 395.25" stroke="rgba(44, 56, 83, 1)" stroke-width="1.5"></path><path d="M982.48 395.25L946.11 489.49" stroke="rgba(44, 56, 83, 1)" stroke-width="1.5"></path><path d="M982.48 395.25L1123.47 341.19" stroke="rgba(44, 56, 83, 1)" stroke-width="1.5"></path><path d="M946.11 489.49L946.11 489.49" stroke="rgba(44, 56, 83, 1)" stroke-width="1.5"></path><path d="M946.11 489.49L969.08 649.62" stroke="rgba(44, 56, 83, 1)" stroke-width="1.5"></path><path d="M946.11 489.49L829.26 353.54" stroke="rgba(44, 56, 83, 1)" stroke-width="1.5"></path><path d="M946.11 489.49L841.47 667.26" stroke="rgba(44, 56, 83, 1)" stroke-width="1.5"></path><path d="M969.08 649.62L969.08 649.62" stroke="rgba(44, 56, 83, 1)" stroke-width="1.5"></path><path d="M969.08 649.62L1093.01 638.66" stroke="rgba(44, 56, 83, 1)" stroke-width="1.5"></path><path d="M1095.59 -85.41L1095.59 -85.41" stroke="rgba(44, 56, 83, 1)" stroke-width="1.5"></path><path d="M1095.59 -85.41L1104.23 61.92" stroke="rgba(44, 56, 83, 1)" stroke-width="1.5"></path><path d="M1095.59 -85.41L1270.5 -46.63" stroke="rgba(44, 56, 83, 1)" stroke-width="1.5"></path><path d="M1104.23 61.92L1104.23 61.92" stroke="rgba(44, 56, 83, 1)" stroke-width="1.5"></path><path d="M1104.23 61.92L1120.87 201.86" stroke="rgba(44, 56, 83, 1)" stroke-width="1.5"></path><path d="M1120.87 201.86L1120.87 201.86" stroke="rgba(44, 56, 83, 1)" stroke-width="1.5"></path><path d="M1120.87 201.86L1240.82 255.76" stroke="rgba(44, 56, 83, 1)" stroke-width="1.5"></path><path d="M1120.87 201.86L1123.47 341.19" stroke="rgba(44, 56, 83, 1)" stroke-width="1.5"></path><path d="M1123.47 341.19L1123.47 341.19" stroke="rgba(44, 56, 83, 1)" stroke-width="1.5"></path><path d="M1123.47 341.19L1240.82 255.76" stroke="rgba(44, 56, 83, 1)" stroke-width="1.5"></path><path d="M1123.47 341.19L1274.63 358.14" stroke="rgba(44, 56, 83, 1)" stroke-width="1.5"></path><path d="M1123.47 341.19L1153.19 496.13" stroke="rgba(44, 56, 83, 1)" stroke-width="1.5"></path><path d="M1153.19 496.13L1153.19 496.13" stroke="rgba(44, 56, 83, 1)" stroke-width="1.5"></path><path d="M1153.19 496.13L1263.09 489.74" stroke="rgba(44, 56, 83, 1)" stroke-width="1.5"></path><path d="M1153.19 496.13L1093.01 638.66" stroke="rgba(44, 56, 83, 1)" stroke-width="1.5"></path><path d="M1093.01 638.66L1093.01 638.66" stroke="rgba(44, 56, 83, 1)" stroke-width="1.5"></path><path d="M1093.01 638.66L1291.04 652.02" stroke="rgba(44, 56, 83, 1)" stroke-width="1.5"></path><path d="M1093.01 638.66L946.11 489.49" stroke="rgba(44, 56, 83, 1)" stroke-width="1.5"></path><path d="M1093.01 638.66L1263.09 489.74" stroke="rgba(44, 56, 83, 1)" stroke-width="1.5"></path><path d="M1270.5 -46.63L1270.5 -46.63" stroke="rgba(44, 56, 83, 1)" stroke-width="1.5"></path><path d="M1270.5 -46.63L1303.82 75.53" stroke="rgba(44, 56, 83, 1)" stroke-width="1.5"></path><path d="M1270.5 -46.63L1411.19 48.31" stroke="rgba(44, 56, 83, 1)" stroke-width="1.5"></path><path d="M1303.82 75.53L1303.82 75.53" stroke="rgba(44, 56, 83, 1)" stroke-width="1.5"></path><path d="M1303.82 75.53L1411.19 48.31" stroke="rgba(44, 56, 83, 1)" stroke-width="1.5"></path><path d="M1303.82 75.53L1240.82 255.76" stroke="rgba(44, 56, 83, 1)" stroke-width="1.5"></path><path d="M1303.82 75.53L1104.23 61.92" stroke="rgba(44, 56, 83, 1)" stroke-width="1.5"></path><path d="M1240.82 255.76L1240.82 255.76" stroke="rgba(44, 56, 83, 1)" stroke-width="1.5"></path><path d="M1240.82 255.76L1274.63 358.14" stroke="rgba(44, 56, 83, 1)" stroke-width="1.5"></path><path d="M1240.82 255.76L1450.85 253.32" stroke="rgba(44, 56, 83, 1)" stroke-width="1.5"></path><path d="M1274.63 358.14L1274.63 358.14" stroke="rgba(44, 56, 83, 1)" stroke-width="1.5"></path><path d="M1274.63 358.14L1263.09 489.74" stroke="rgba(44, 56, 83, 1)" stroke-width="1.5"></path><path d="M1274.63 358.14L1414.9 387.92" stroke="rgba(44, 56, 83, 1)" stroke-width="1.5"></path><path d="M1274.63 358.14L1153.19 496.13" stroke="rgba(44, 56, 83, 1)" stroke-width="1.5"></path><path d="M1263.09 489.74L1263.09 489.74" stroke="rgba(44, 56, 83, 1)" stroke-width="1.5"></path><path d="M1263.09 489.74L1394.2 519.76" stroke="rgba(44, 56, 83, 1)" stroke-width="1.5"></path><path d="M1291.04 652.02L1291.04 652.02" stroke="rgba(44, 56, 83, 1)" stroke-width="1.5"></path><path d="M1291.04 652.02L1263.09 489.74" stroke="rgba(44, 56, 83, 1)" stroke-width="1.5"></path><path d="M1291.04 652.02L1394.2 519.76" stroke="rgba(44, 56, 83, 1)" stroke-width="1.5"></path><path d="M1291.04 652.02L1460.33 645.34" stroke="rgba(44, 56, 83, 1)" stroke-width="1.5"></path><path d="M1291.04 652.02L1153.19 496.13" stroke="rgba(44, 56, 83, 1)" stroke-width="1.5"></path><path d="M1291.04 652.02L1414.9 387.92" stroke="rgba(44, 56, 83, 1)" stroke-width="1.5"></path><path d="M1448.15 -74.43L1448.15 -74.43" stroke="rgba(44, 56, 83, 1)" stroke-width="1.5"></path><path d="M1448.15 -74.43L1565.04 -76.34" stroke="rgba(44, 56, 83, 1)" stroke-width="1.5"></path><path d="M1448.15 -74.43L1411.19 48.31" stroke="rgba(44, 56, 83, 1)" stroke-width="1.5"></path><path d="M1411.19 48.31L1411.19 48.31" stroke="rgba(44, 56, 83, 1)" stroke-width="1.5"></path><path d="M1411.19 48.31L1565.04 -76.34" stroke="rgba(44, 56, 83, 1)" stroke-width="1.5"></path><path d="M1411.19 48.31L1450.85 253.32" stroke="rgba(44, 56, 83, 1)" stroke-width="1.5"></path><path d="M1411.19 48.31L1543.8 245.1" stroke="rgba(44, 56, 83, 1)" stroke-width="1.5"></path><path d="M1450.85 253.32L1450.85 253.32" stroke="rgba(44, 56, 83, 1)" stroke-width="1.5"></path><path d="M1450.85 253.32L1543.8 245.1" stroke="rgba(44, 56, 83, 1)" stroke-width="1.5"></path><path d="M1450.85 253.32L1414.9 387.92" stroke="rgba(44, 56, 83, 1)" stroke-width="1.5"></path><path d="M1450.85 253.32L1554.21 359.85" stroke="rgba(44, 56, 83, 1)" stroke-width="1.5"></path><path d="M1450.85 253.32L1274.63 358.14" stroke="rgba(44, 56, 83, 1)" stroke-width="1.5"></path><path d="M1414.9 387.92L1414.9 387.92" stroke="rgba(44, 56, 83, 1)" stroke-width="1.5"></path><path d="M1414.9 387.92L1394.2 519.76" stroke="rgba(44, 56, 83, 1)" stroke-width="1.5"></path><path d="M1394.2 519.76L1394.2 519.76" stroke="rgba(44, 56, 83, 1)" stroke-width="1.5"></path><path d="M1460.33 645.34L1460.33 645.34" stroke="rgba(44, 56, 83, 1)" stroke-width="1.5"></path><path d="M1460.33 645.34L1394.2 519.76" stroke="rgba(44, 56, 83, 1)" stroke-width="1.5"></path><path d="M1460.33 645.34L1592.21 708.65" stroke="rgba(44, 56, 83, 1)" stroke-width="1.5"></path><path d="M1460.33 645.34L1263.09 489.74" stroke="rgba(44, 56, 83, 1)" stroke-width="1.5"></path><path d="M1460.33 645.34L1414.9 387.92" stroke="rgba(44, 56, 83, 1)" stroke-width="1.5"></path><path d="M1460.33 645.34L1554.21 359.85" stroke="rgba(44, 56, 83, 1)" stroke-width="1.5"></path><path d="M1565.04 -76.34L1565.04 -76.34" stroke="rgba(44, 56, 83, 1)" stroke-width="1.5"></path><path d="M1543.8 245.1L1543.8 245.1" stroke="rgba(44, 56, 83, 1)" stroke-width="1.5"></path><path d="M1543.8 245.1L1554.21 359.85" stroke="rgba(44, 56, 83, 1)" stroke-width="1.5"></path><path d="M1543.8 245.1L1414.9 387.92" stroke="rgba(44, 56, 83, 1)" stroke-width="1.5"></path><path d="M1543.8 245.1L1274.63 358.14" stroke="rgba(44, 56, 83, 1)" stroke-width="1.5"></path><path d="M1554.21 359.85L1554.21 359.85" stroke="rgba(44, 56, 83, 1)" stroke-width="1.5"></path><path d="M1554.21 359.85L1414.9 387.92" stroke="rgba(44, 56, 83, 1)" stroke-width="1.5"></path><path d="M1592.21 708.65L1592.21 708.65" stroke="rgba(44, 56, 83, 1)" stroke-width="1.5"></path><path d="M1592.21 708.65L1394.2 519.76" stroke="rgba(44, 56, 83, 1)" stroke-width="1.5"></path><path d="M1592.21 708.65L1291.04 652.02" stroke="rgba(44, 56, 83, 1)" stroke-width="1.5"></path><path d="M1592.21 708.65L1554.21 359.85" stroke="rgba(44, 56, 83, 1)" stroke-width="1.5"></path><path d="M1592.21 708.65L1414.9 387.92" stroke="rgba(44, 56, 83, 1)" stroke-width="1.5"></path><path d="M1592.21 708.65L1263.09 489.74" stroke="rgba(44, 56, 83, 1)" stroke-width="1.5"></path><circle r="5" cx="-99.35" cy="410.16" fill="rgba(44, 56, 83, 1)"></circle><circle r="5" cx="-61.29" cy="504.95" fill="rgba(44, 56, 83, 1)"></circle><circle r="5" cx="-55.3" cy="679.86" fill="rgba(44, 56, 83, 1)"></circle><circle r="5" cx="65.69" cy="362.23" fill="rgba(44, 56, 83, 1)"></circle><circle r="5" cx="54.19" cy="490.08" fill="rgba(44, 56, 83, 1)"></circle><circle r="5" cx="59.02" cy="656.07" fill="rgba(44, 56, 83, 1)"></circle><circle r="5" cx="202.53" cy="508.49" fill="rgba(44, 56, 83, 1)"></circle><circle r="5" cx="224.08" cy="662.81" fill="rgba(44, 56, 83, 1)"></circle><circle r="5" cx="392.64" cy="348.87" fill="rgba(44, 56, 83, 1)"></circle><circle r="5" cx="404.07" cy="551.83" fill="rgba(44, 56, 83, 1)"></circle><circle r="5" cx="373.91" cy="638.08" fill="rgba(44, 56, 83, 1)"></circle><circle r="5" cx="540.43" cy="402.67" fill="rgba(44, 56, 83, 1)"></circle><circle r="5" cx="507.77" cy="503.92" fill="rgba(44, 56, 83, 1)"></circle><circle r="5" cx="552.49" cy="688.55" fill="rgba(44, 56, 83, 1)"></circle><circle r="5" cx="688.57" cy="244.81" fill="rgba(44, 56, 83, 1)"></circle><circle r="5" cx="670.6" cy="400.77" fill="rgba(44, 56, 83, 1)"></circle><circle r="5" cx="648.56" cy="561.27" fill="rgba(44, 56, 83, 1)"></circle><circle r="5" cx="647.81" cy="642" fill="rgba(44, 56, 83, 1)"></circle><circle r="5" cx="838.89" cy="104.92" fill="rgba(44, 56, 83, 1)"></circle><circle r="5" cx="824.01" cy="204.94" fill="rgba(44, 56, 83, 1)"></circle><circle r="5" cx="829.26" cy="353.54" fill="rgba(44, 56, 83, 1)"></circle><circle r="5" cx="856.61" cy="558.83" fill="rgba(44, 56, 83, 1)"></circle><circle r="5" cx="841.47" cy="667.26" fill="rgba(44, 56, 83, 1)"></circle><circle r="5" cx="984.86" cy="-40.05" fill="rgba(44, 56, 83, 1)"></circle><circle r="5" cx="990.93" cy="37.6" fill="rgba(44, 56, 83, 1)"></circle><circle r="5" cx="991.56" cy="254.02" fill="rgba(44, 56, 83, 1)"></circle><circle r="5" cx="982.48" cy="395.25" fill="rgba(44, 56, 83, 1)"></circle><circle r="5" cx="946.11" cy="489.49" fill="rgba(44, 56, 83, 1)"></circle><circle r="5" cx="969.08" cy="649.62" fill="rgba(44, 56, 83, 1)"></circle><circle r="5" cx="1095.59" cy="-85.41" fill="rgba(44, 56, 83, 1)"></circle><circle r="5" cx="1104.23" cy="61.92" fill="rgba(44, 56, 83, 1)"></circle><circle r="5" cx="1120.87" cy="201.86" fill="rgba(44, 56, 83, 1)"></circle><circle r="5" cx="1123.47" cy="341.19" fill="rgba(44, 56, 83, 1)"></circle><circle r="5" cx="1153.19" cy="496.13" fill="rgba(44, 56, 83, 1)"></circle><circle r="5" cx="1093.01" cy="638.66" fill="rgba(44, 56, 83, 1)"></circle><circle r="5" cx="1270.5" cy="-46.63" fill="rgba(44, 56, 83, 1)"></circle><circle r="5" cx="1303.82" cy="75.53" fill="rgba(44, 56, 83, 1)"></circle><circle r="5" cx="1240.82" cy="255.76" fill="rgba(44, 56, 83, 1)"></circle><circle r="5" cx="1274.63" cy="358.14" fill="rgba(44, 56, 83, 1)"></circle><circle r="5" cx="1263.09" cy="489.74" fill="rgba(44, 56, 83, 1)"></circle><circle r="5" cx="1291.04" cy="652.02" fill="rgba(44, 56, 83, 1)"></circle><circle r="5" cx="1448.15" cy="-74.43" fill="rgba(44, 56, 83, 1)"></circle><circle r="5" cx="1411.19" cy="48.31" fill="rgba(44, 56, 83, 1)"></circle><circle r="5" cx="1450.85" cy="253.32" fill="rgba(44, 56, 83, 1)"></circle><circle r="5" cx="1414.9" cy="387.92" fill="rgba(44, 56, 83, 1)"></circle><circle r="5" cx="1394.2" cy="519.76" fill="rgba(44, 56, 83, 1)"></circle><circle r="5" cx="1460.33" cy="645.34" fill="rgba(44, 56, 83, 1)"></circle><circle r="5" cx="1565.04" cy="-76.34" fill="rgba(44, 56, 83, 1)"></circle><circle r="5" cx="1543.8" cy="245.1" fill="rgba(44, 56, 83, 1)"></circle><circle r="5" cx="1554.21" cy="359.85" fill="rgba(44, 56, 83, 1)"></circle><circle r="5" cx="1592.21" cy="708.65" fill="rgba(44, 56, 83, 1)"></circle><path d="M82.41 533.33L82.41 533.33" stroke="hsl(228.39999999999998, 35.6%, 22.2%)" stroke-width="1.5"></path><path d="M82.41 533.33L-55.08 499.26" stroke="hsl(228.39999999999998, 35.6%, 22.2%)" stroke-width="1.5"></path><path d="M82.41 533.33L98.88 678.95" stroke="hsl(228.39999999999998, 35.6%, 22.2%)" stroke-width="1.5"></path><path d="M82.41 533.33L248.75 552.65" stroke="hsl(228.39999999999998, 35.6%, 22.2%)" stroke-width="1.5"></path><path d="M82.41 533.33L-41.84 674.46" stroke="hsl(228.39999999999998, 35.6%, 22.2%)" stroke-width="1.5"></path><path d="M82.41 533.33L249.24 705.61" stroke="hsl(228.39999999999998, 35.6%, 22.2%)" stroke-width="1.5"></path><path d="M82.41 533.33L339.41 686.85" stroke="hsl(228.39999999999998, 35.6%, 22.2%)" stroke-width="1.5"></path><path d="M958.44 637.98L958.44 637.98" stroke="hsl(228.39999999999998, 35.6%, 22.2%)" stroke-width="1.5"></path><path d="M958.44 637.98L843.73 711.52" stroke="hsl(228.39999999999998, 35.6%, 22.2%)" stroke-width="1.5"></path><path d="M958.44 637.98L1010.88 491.8" stroke="hsl(228.39999999999998, 35.6%, 22.2%)" stroke-width="1.5"></path><path d="M958.44 637.98L849.06 490.08" stroke="hsl(228.39999999999998, 35.6%, 22.2%)" stroke-width="1.5"></path><path d="M1244.08 43.19L1244.08 43.19" stroke="hsl(228.39999999999998, 35.6%, 22.2%)" stroke-width="1.5"></path><path d="M1244.08 43.19L1287.42 -87.26" stroke="hsl(228.39999999999998, 35.6%, 22.2%)" stroke-width="1.5"></path><path d="M1244.08 43.19L1393.09 -69.79" stroke="hsl(228.39999999999998, 35.6%, 22.2%)" stroke-width="1.5"></path><path d="M1244.08 43.19L1283.95 226.23" stroke="hsl(228.39999999999998, 35.6%, 22.2%)" stroke-width="1.5"></path><path d="M1278.05 403.77L1278.05 403.77" stroke="hsl(228.39999999999998, 35.6%, 22.2%)" stroke-width="1.5"></path><path d="M1278.05 403.77L1409.52 383.27" stroke="hsl(228.39999999999998, 35.6%, 22.2%)" stroke-width="1.5"></path><path d="M1278.05 403.77L1308.7 534.17" stroke="hsl(228.39999999999998, 35.6%, 22.2%)" stroke-width="1.5"></path><path d="M1278.05 403.77L1283.95 226.23" stroke="hsl(228.39999999999998, 35.6%, 22.2%)" stroke-width="1.5"></path><path d="M1589.36 548.83L1589.36 548.83" stroke="hsl(228.39999999999998, 35.6%, 22.2%)" stroke-width="1.5"></path><path d="M1589.36 548.83L1610.28 690.15" stroke="hsl(228.39999999999998, 35.6%, 22.2%)" stroke-width="1.5"></path><path d="M1589.36 548.83L1570.13 391.99" stroke="hsl(228.39999999999998, 35.6%, 22.2%)" stroke-width="1.5"></path><path d="M1589.36 548.83L1401.21 560.49" stroke="hsl(228.39999999999998, 35.6%, 22.2%)" stroke-width="1.5"></path><path d="M1589.36 548.83L1409.52 383.27" stroke="hsl(228.39999999999998, 35.6%, 22.2%)" stroke-width="1.5"></path><path d="M-55.08 499.26L-55.08 499.26" stroke="hsl(228.39999999999998, 35.6%, 22.2%)" stroke-width="1.5"></path><path d="M-41.84 674.46L-41.84 674.46" stroke="hsl(228.39999999999998, 35.6%, 22.2%)" stroke-width="1.5"></path><path d="M-41.84 674.46L98.88 678.95" stroke="hsl(228.39999999999998, 35.6%, 22.2%)" stroke-width="1.5"></path><path d="M-41.84 674.46L-55.08 499.26" stroke="hsl(228.39999999999998, 35.6%, 22.2%)" stroke-width="1.5"></path><path d="M98.88 678.95L98.88 678.95" stroke="hsl(228.39999999999998, 35.6%, 22.2%)" stroke-width="1.5"></path><path d="M98.88 678.95L249.24 705.61" stroke="hsl(228.39999999999998, 35.6%, 22.2%)" stroke-width="1.5"></path><path d="M248.75 552.65L248.75 552.65" stroke="hsl(228.39999999999998, 35.6%, 22.2%)" stroke-width="1.5"></path><path d="M248.75 552.65L249.24 705.61" stroke="hsl(228.39999999999998, 35.6%, 22.2%)" stroke-width="1.5"></path><path d="M248.75 552.65L339.41 686.85" stroke="hsl(228.39999999999998, 35.6%, 22.2%)" stroke-width="1.5"></path><path d="M248.75 552.65L98.88 678.95" stroke="hsl(228.39999999999998, 35.6%, 22.2%)" stroke-width="1.5"></path><path d="M248.75 552.65L526.6 512.55" stroke="hsl(228.39999999999998, 35.6%, 22.2%)" stroke-width="1.5"></path><path d="M248.75 552.65L-55.08 499.26" stroke="hsl(228.39999999999998, 35.6%, 22.2%)" stroke-width="1.5"></path><path d="M249.24 705.61L249.24 705.61" stroke="hsl(228.39999999999998, 35.6%, 22.2%)" stroke-width="1.5"></path><path d="M249.24 705.61L339.41 686.85" stroke="hsl(228.39999999999998, 35.6%, 22.2%)" stroke-width="1.5"></path><path d="M339.41 686.85L339.41 686.85" stroke="hsl(228.39999999999998, 35.6%, 22.2%)" stroke-width="1.5"></path><path d="M339.41 686.85L98.88 678.95" stroke="hsl(228.39999999999998, 35.6%, 22.2%)" stroke-width="1.5"></path><path d="M339.41 686.85L526.6 512.55" stroke="hsl(228.39999999999998, 35.6%, 22.2%)" stroke-width="1.5"></path><path d="M526.6 512.55L526.6 512.55" stroke="hsl(228.39999999999998, 35.6%, 22.2%)" stroke-width="1.5"></path><path d="M526.6 512.55L682.57 495.15" stroke="hsl(228.39999999999998, 35.6%, 22.2%)" stroke-width="1.5"></path><path d="M526.6 512.55L680.54 686.88" stroke="hsl(228.39999999999998, 35.6%, 22.2%)" stroke-width="1.5"></path><path d="M708.71 365.48L708.71 365.48" stroke="hsl(228.39999999999998, 35.6%, 22.2%)" stroke-width="1.5"></path><path d="M708.71 365.48L682.57 495.15" stroke="hsl(228.39999999999998, 35.6%, 22.2%)" stroke-width="1.5"></path><path d="M708.71 365.48L836.66 399.97" stroke="hsl(228.39999999999998, 35.6%, 22.2%)" stroke-width="1.5"></path><path d="M708.71 365.48L849.06 490.08" stroke="hsl(228.39999999999998, 35.6%, 22.2%)" stroke-width="1.5"></path><path d="M708.71 365.48L526.6 512.55" stroke="hsl(228.39999999999998, 35.6%, 22.2%)" stroke-width="1.5"></path><path d="M708.71 365.48L982.88 354.78" stroke="hsl(228.39999999999998, 35.6%, 22.2%)" stroke-width="1.5"></path><path d="M708.71 365.48L680.54 686.88" stroke="hsl(228.39999999999998, 35.6%, 22.2%)" stroke-width="1.5"></path><path d="M682.57 495.15L682.57 495.15" stroke="hsl(228.39999999999998, 35.6%, 22.2%)" stroke-width="1.5"></path><path d="M682.57 495.15L849.06 490.08" stroke="hsl(228.39999999999998, 35.6%, 22.2%)" stroke-width="1.5"></path><path d="M682.57 495.15L836.66 399.97" stroke="hsl(228.39999999999998, 35.6%, 22.2%)" stroke-width="1.5"></path><path d="M682.57 495.15L680.54 686.88" stroke="hsl(228.39999999999998, 35.6%, 22.2%)" stroke-width="1.5"></path><path d="M680.54 686.88L680.54 686.88" stroke="hsl(228.39999999999998, 35.6%, 22.2%)" stroke-width="1.5"></path><path d="M680.54 686.88L843.73 711.52" stroke="hsl(228.39999999999998, 35.6%, 22.2%)" stroke-width="1.5"></path><path d="M680.54 686.88L849.06 490.08" stroke="hsl(228.39999999999998, 35.6%, 22.2%)" stroke-width="1.5"></path><path d="M680.54 686.88L958.44 637.98" stroke="hsl(228.39999999999998, 35.6%, 22.2%)" stroke-width="1.5"></path><path d="M836.66 399.97L836.66 399.97" stroke="hsl(228.39999999999998, 35.6%, 22.2%)" stroke-width="1.5"></path><path d="M836.66 399.97L849.06 490.08" stroke="hsl(228.39999999999998, 35.6%, 22.2%)" stroke-width="1.5"></path><path d="M836.66 399.97L982.88 354.78" stroke="hsl(228.39999999999998, 35.6%, 22.2%)" stroke-width="1.5"></path><path d="M836.66 399.97L1010.88 491.8" stroke="hsl(228.39999999999998, 35.6%, 22.2%)" stroke-width="1.5"></path><path d="M849.06 490.08L849.06 490.08" stroke="hsl(228.39999999999998, 35.6%, 22.2%)" stroke-width="1.5"></path><path d="M849.06 490.08L1010.88 491.8" stroke="hsl(228.39999999999998, 35.6%, 22.2%)" stroke-width="1.5"></path><path d="M843.73 711.52L843.73 711.52" stroke="hsl(228.39999999999998, 35.6%, 22.2%)" stroke-width="1.5"></path><path d="M843.73 711.52L849.06 490.08" stroke="hsl(228.39999999999998, 35.6%, 22.2%)" stroke-width="1.5"></path><path d="M843.73 711.52L682.57 495.15" stroke="hsl(228.39999999999998, 35.6%, 22.2%)" stroke-width="1.5"></path><path d="M843.73 711.52L1010.88 491.8" stroke="hsl(228.39999999999998, 35.6%, 22.2%)" stroke-width="1.5"></path><path d="M843.73 711.52L836.66 399.97" stroke="hsl(228.39999999999998, 35.6%, 22.2%)" stroke-width="1.5"></path><path d="M982.88 354.78L982.88 354.78" stroke="hsl(228.39999999999998, 35.6%, 22.2%)" stroke-width="1.5"></path><path d="M982.88 354.78L1096.2 364.91" stroke="hsl(228.39999999999998, 35.6%, 22.2%)" stroke-width="1.5"></path><path d="M982.88 354.78L1010.88 491.8" stroke="hsl(228.39999999999998, 35.6%, 22.2%)" stroke-width="1.5"></path><path d="M982.88 354.78L849.06 490.08" stroke="hsl(228.39999999999998, 35.6%, 22.2%)" stroke-width="1.5"></path><path d="M982.88 354.78L1123.82 208.7" stroke="hsl(228.39999999999998, 35.6%, 22.2%)" stroke-width="1.5"></path><path d="M982.88 354.78L1117.73 524.22" stroke="hsl(228.39999999999998, 35.6%, 22.2%)" stroke-width="1.5"></path><path d="M1010.88 491.8L1010.88 491.8" stroke="hsl(228.39999999999998, 35.6%, 22.2%)" stroke-width="1.5"></path><path d="M1010.88 491.8L1117.73 524.22" stroke="hsl(228.39999999999998, 35.6%, 22.2%)" stroke-width="1.5"></path><path d="M1010.88 491.8L1096.2 364.91" stroke="hsl(228.39999999999998, 35.6%, 22.2%)" stroke-width="1.5"></path><path d="M1123.82 208.7L1123.82 208.7" stroke="hsl(228.39999999999998, 35.6%, 22.2%)" stroke-width="1.5"></path><path d="M1123.82 208.7L1096.2 364.91" stroke="hsl(228.39999999999998, 35.6%, 22.2%)" stroke-width="1.5"></path><path d="M1123.82 208.7L1283.95 226.23" stroke="hsl(228.39999999999998, 35.6%, 22.2%)" stroke-width="1.5"></path><path d="M1096.2 364.91L1096.2 364.91" stroke="hsl(228.39999999999998, 35.6%, 22.2%)" stroke-width="1.5"></path><path d="M1117.73 524.22L1117.73 524.22" stroke="hsl(228.39999999999998, 35.6%, 22.2%)" stroke-width="1.5"></path><path d="M1117.73 524.22L1096.2 364.91" stroke="hsl(228.39999999999998, 35.6%, 22.2%)" stroke-width="1.5"></path><path d="M1117.73 524.22L1308.7 534.17" stroke="hsl(228.39999999999998, 35.6%, 22.2%)" stroke-width="1.5"></path><path d="M1117.73 524.22L958.44 637.98" stroke="hsl(228.39999999999998, 35.6%, 22.2%)" stroke-width="1.5"></path><path d="M1117.73 524.22L1278.05 403.77" stroke="hsl(228.39999999999998, 35.6%, 22.2%)" stroke-width="1.5"></path><path d="M1287.42 -87.26L1287.42 -87.26" stroke="hsl(228.39999999999998, 35.6%, 22.2%)" stroke-width="1.5"></path><path d="M1287.42 -87.26L1393.09 -69.79" stroke="hsl(228.39999999999998, 35.6%, 22.2%)" stroke-width="1.5"></path><path d="M1283.95 226.23L1283.95 226.23" stroke="hsl(228.39999999999998, 35.6%, 22.2%)" stroke-width="1.5"></path><path d="M1283.95 226.23L1419.71 215.46" stroke="hsl(228.39999999999998, 35.6%, 22.2%)" stroke-width="1.5"></path><path d="M1283.95 226.23L1409.52 383.27" stroke="hsl(228.39999999999998, 35.6%, 22.2%)" stroke-width="1.5"></path><path d="M1283.95 226.23L1445.78 96.02" stroke="hsl(228.39999999999998, 35.6%, 22.2%)" stroke-width="1.5"></path><path d="M1308.7 534.17L1308.7 534.17" stroke="hsl(228.39999999999998, 35.6%, 22.2%)" stroke-width="1.5"></path><path d="M1308.7 534.17L1401.21 560.49" stroke="hsl(228.39999999999998, 35.6%, 22.2%)" stroke-width="1.5"></path><path d="M1308.7 534.17L1388.29 692.55" stroke="hsl(228.39999999999998, 35.6%, 22.2%)" stroke-width="1.5"></path><path d="M1308.7 534.17L1409.52 383.27" stroke="hsl(228.39999999999998, 35.6%, 22.2%)" stroke-width="1.5"></path><path d="M1393.09 -69.79L1393.09 -69.79" stroke="hsl(228.39999999999998, 35.6%, 22.2%)" stroke-width="1.5"></path><path d="M1393.09 -69.79L1445.78 96.02" stroke="hsl(228.39999999999998, 35.6%, 22.2%)" stroke-width="1.5"></path><path d="M1393.09 -69.79L1567.46 -43.93" stroke="hsl(228.39999999999998, 35.6%, 22.2%)" stroke-width="1.5"></path><path d="M1445.78 96.02L1445.78 96.02" stroke="hsl(228.39999999999998, 35.6%, 22.2%)" stroke-width="1.5"></path><path d="M1445.78 96.02L1419.71 215.46" stroke="hsl(228.39999999999998, 35.6%, 22.2%)" stroke-width="1.5"></path><path d="M1445.78 96.02L1568.16 70.13" stroke="hsl(228.39999999999998, 35.6%, 22.2%)" stroke-width="1.5"></path><path d="M1445.78 96.02L1577.2 213.35" stroke="hsl(228.39999999999998, 35.6%, 22.2%)" stroke-width="1.5"></path><path d="M1445.78 96.02L1567.46 -43.93" stroke="hsl(228.39999999999998, 35.6%, 22.2%)" stroke-width="1.5"></path><path d="M1419.71 215.46L1419.71 215.46" stroke="hsl(228.39999999999998, 35.6%, 22.2%)" stroke-width="1.5"></path><path d="M1419.71 215.46L1577.2 213.35" stroke="hsl(228.39999999999998, 35.6%, 22.2%)" stroke-width="1.5"></path><path d="M1419.71 215.46L1409.52 383.27" stroke="hsl(228.39999999999998, 35.6%, 22.2%)" stroke-width="1.5"></path><path d="M1409.52 383.27L1409.52 383.27" stroke="hsl(228.39999999999998, 35.6%, 22.2%)" stroke-width="1.5"></path><path d="M1409.52 383.27L1570.13 391.99" stroke="hsl(228.39999999999998, 35.6%, 22.2%)" stroke-width="1.5"></path><path d="M1401.21 560.49L1401.21 560.49" stroke="hsl(228.39999999999998, 35.6%, 22.2%)" stroke-width="1.5"></path><path d="M1401.21 560.49L1388.29 692.55" stroke="hsl(228.39999999999998, 35.6%, 22.2%)" stroke-width="1.5"></path><path d="M1401.21 560.49L1409.52 383.27" stroke="hsl(228.39999999999998, 35.6%, 22.2%)" stroke-width="1.5"></path><path d="M1388.29 692.55L1388.29 692.55" stroke="hsl(228.39999999999998, 35.6%, 22.2%)" stroke-width="1.5"></path><path d="M1388.29 692.55L1610.28 690.15" stroke="hsl(228.39999999999998, 35.6%, 22.2%)" stroke-width="1.5"></path><path d="M1388.29 692.55L1589.36 548.83" stroke="hsl(228.39999999999998, 35.6%, 22.2%)" stroke-width="1.5"></path><path d="M1567.46 -43.93L1567.46 -43.93" stroke="hsl(228.39999999999998, 35.6%, 22.2%)" stroke-width="1.5"></path><path d="M1567.46 -43.93L1568.16 70.13" stroke="hsl(228.39999999999998, 35.6%, 22.2%)" stroke-width="1.5"></path><path d="M1568.16 70.13L1568.16 70.13" stroke="hsl(228.39999999999998, 35.6%, 22.2%)" stroke-width="1.5"></path><path d="M1568.16 70.13L1577.2 213.35" stroke="hsl(228.39999999999998, 35.6%, 22.2%)" stroke-width="1.5"></path><path d="M1568.16 70.13L1419.71 215.46" stroke="hsl(228.39999999999998, 35.6%, 22.2%)" stroke-width="1.5"></path><path d="M1568.16 70.13L1393.09 -69.79" stroke="hsl(228.39999999999998, 35.6%, 22.2%)" stroke-width="1.5"></path><path d="M1568.16 70.13L1287.42 -87.26" stroke="hsl(228.39999999999998, 35.6%, 22.2%)" stroke-width="1.5"></path><path d="M1577.2 213.35L1577.2 213.35" stroke="hsl(228.39999999999998, 35.6%, 22.2%)" stroke-width="1.5"></path><path d="M1577.2 213.35L1570.13 391.99" stroke="hsl(228.39999999999998, 35.6%, 22.2%)" stroke-width="1.5"></path><path d="M1577.2 213.35L1409.52 383.27" stroke="hsl(228.39999999999998, 35.6%, 22.2%)" stroke-width="1.5"></path><path d="M1570.13 391.99L1570.13 391.99" stroke="hsl(228.39999999999998, 35.6%, 22.2%)" stroke-width="1.5"></path><path d="M1570.13 391.99L1419.71 215.46" stroke="hsl(228.39999999999998, 35.6%, 22.2%)" stroke-width="1.5"></path><path d="M1570.13 391.99L1401.21 560.49" stroke="hsl(228.39999999999998, 35.6%, 22.2%)" stroke-width="1.5"></path><path d="M1570.13 391.99L1278.05 403.77" stroke="hsl(228.39999999999998, 35.6%, 22.2%)" stroke-width="1.5"></path><path d="M1610.28 690.15L1610.28 690.15" stroke="hsl(228.39999999999998, 35.6%, 22.2%)" stroke-width="1.5"></path><path d="M1610.28 690.15L1401.21 560.49" stroke="hsl(228.39999999999998, 35.6%, 22.2%)" stroke-width="1.5"></path><path d="M1610.28 690.15L1570.13 391.99" stroke="hsl(228.39999999999998, 35.6%, 22.2%)" stroke-width="1.5"></path><circle r="25" cx="82.41" cy="533.33" fill="url(&quot;#SvgjsRadialGradient1001&quot;)"></circle><circle r="25" cx="958.44" cy="637.98" fill="url(&quot;#SvgjsRadialGradient1001&quot;)"></circle><circle r="25" cx="1244.08" cy="43.19" fill="url(&quot;#SvgjsRadialGradient1001&quot;)"></circle><circle r="25" cx="1278.05" cy="403.77" fill="url(&quot;#SvgjsRadialGradient1001&quot;)"></circle><circle r="25" cx="1589.36" cy="548.83" fill="url(&quot;#SvgjsRadialGradient1001&quot;)"></circle><circle r="5" cx="-55.08" cy="499.26" fill="#8e919d"></circle><circle r="5" cx="-41.84" cy="674.46" fill="#8e919d"></circle><circle r="5" cx="98.88" cy="678.95" fill="#8e919d"></circle><circle r="5" cx="248.75" cy="552.65" fill="#8e919d"></circle><circle r="5" cx="249.24" cy="705.61" fill="#8e919d"></circle><circle r="5" cx="339.41" cy="686.85" fill="#8e919d"></circle><circle r="5" cx="526.6" cy="512.55" fill="#8e919d"></circle><circle r="5" cx="708.71" cy="365.48" fill="#8e919d"></circle><circle r="5" cx="682.57" cy="495.15" fill="#8e919d"></circle><circle r="5" cx="680.54" cy="686.88" fill="#8e919d"></circle><circle r="5" cx="836.66" cy="399.97" fill="#8e919d"></circle><circle r="5" cx="849.06" cy="490.08" fill="#8e919d"></circle><circle r="5" cx="843.73" cy="711.52" fill="#8e919d"></circle><circle r="5" cx="982.88" cy="354.78" fill="#8e919d"></circle><circle r="5" cx="1010.88" cy="491.8" fill="#8e919d"></circle><circle r="5" cx="1123.82" cy="208.7" fill="#8e919d"></circle><circle r="5" cx="1096.2" cy="364.91" fill="#8e919d"></circle><circle r="5" cx="1117.73" cy="524.22" fill="#8e919d"></circle><circle r="5" cx="1287.42" cy="-87.26" fill="#8e919d"></circle><circle r="5" cx="1283.95" cy="226.23" fill="#8e919d"></circle><circle r="5" cx="1308.7" cy="534.17" fill="#8e919d"></circle><circle r="5" cx="1393.09" cy="-69.79" fill="#8e919d"></circle><circle r="5" cx="1445.78" cy="96.02" fill="#8e919d"></circle><circle r="5" cx="1419.71" cy="215.46" fill="#8e919d"></circle><circle r="5" cx="1409.52" cy="383.27" fill="#8e919d"></circle><circle r="5" cx="1401.21" cy="560.49" fill="#8e919d"></circle><circle r="5" cx="1388.29" cy="692.55" fill="#8e919d"></circle><circle r="5" cx="1567.46" cy="-43.93" fill="#8e919d"></circle><circle r="5" cx="1568.16" cy="70.13" fill="#8e919d"></circle><circle r="5" cx="1577.2" cy="213.35" fill="#8e919d"></circle><circle r="5" cx="1570.13" cy="391.99" fill="#8e919d"></circle><circle r="5" cx="1610.28" cy="690.15" fill="#8e919d"></circle></g><defs><mask id="SvgjsMask1000"><rect width="1440" height="560" fill="#ffffff"></rect></mask><radialGradient id="SvgjsRadialGradient1001"><stop stop-color="#ffffff" offset="0.1"></stop><stop stop-color="rgba(28, 34, 59, 1)" offset="0.2"></stop><stop stop-color="rgba(28, 34, 59, 0)" offset="1"></stop></radialGradient></defs></svg>