<svg width="86" height="81" viewBox="0 0 86 81" fill="none" xmlns="http://www.w3.org/2000/svg">
<ellipse cx="43" cy="40.5" rx="43" ry="40.5" fill="#3498DB"/>
<path d="M61.49 24.3056C61.4423 24.1011 61.3314 23.9136 61.1707 23.7656C61.0101 23.6177 60.8064 23.5156 60.5842 23.4717C58.1938 23 56.3237 23 54.4603 23C46.7989 23 42.2035 26.7734 38.7744 31.7499H31.0387C30.3781 31.7504 29.7306 31.92 29.1686 32.2398C28.6066 32.5595 28.1522 33.0169 27.8561 33.5607L24.1872 40.3145C24.0518 40.5647 23.9879 40.8426 24.0019 41.1219C24.0158 41.4012 24.107 41.6725 24.2668 41.9102C24.4267 42.1479 24.6498 42.3441 24.9151 42.4801C25.1804 42.6161 25.479 42.6874 25.7826 42.6872H33.4864L31.8182 44.2232C31.3728 44.6335 31.1226 45.1898 31.1226 45.7698C31.1226 46.3499 31.3728 46.9062 31.8182 47.3165L35.597 50.7966C35.8176 50.9998 36.0795 51.1609 36.3678 51.2709C36.656 51.3809 36.965 51.4375 37.277 51.4375C37.589 51.4375 37.898 51.3809 38.1863 51.2709C38.4745 51.1609 38.7364 50.9998 38.957 50.7966L40.6252 49.2606V56.3589C40.6251 56.6384 40.7025 56.9133 40.8502 57.1574C40.9978 57.4016 41.2108 57.607 41.4688 57.7542C41.7268 57.9013 42.0214 57.9853 42.3246 57.9982C42.6278 58.0112 42.9296 57.9525 43.2013 57.8279L50.5286 54.4517C51.1202 54.1796 51.6177 53.761 51.9652 53.243C52.3127 52.725 52.4965 52.128 52.4959 51.5191V44.3818C57.8849 41.2168 61.9985 36.9718 61.9985 29.9521C62.0059 28.2294 62.0059 26.5068 61.49 24.3056ZM52.5034 34.4842C51.916 34.4842 51.3419 34.3238 50.8536 34.0234C50.3652 33.7229 49.9846 33.2959 49.7599 32.7963C49.5351 32.2966 49.4763 31.7468 49.5909 31.2164C49.7055 30.686 49.9883 30.1988 50.4036 29.8164C50.8189 29.434 51.348 29.1736 51.924 29.0681C52.5001 28.9626 53.0972 29.0167 53.6398 29.2237C54.1824 29.4306 54.6462 29.7811 54.9725 30.2308C55.2988 30.6804 55.4729 31.2091 55.4729 31.7499C55.4729 32.4751 55.1601 33.1706 54.6032 33.6833C54.0463 34.1961 53.2909 34.4842 52.5034 34.4842Z" fill="white"/>
</svg>
