<svg width="86" height="81" viewBox="0 0 86 81" fill="none" xmlns="http://www.w3.org/2000/svg">
<ellipse cx="43" cy="40.5" rx="43" ry="40.5" fill="#2980B9"/>
<path d="M61.05 51.4375H46.6539C46.61 52.7917 45.7805 53.625 44.71 53.625H41.1C39.9903 53.625 39.1394 52.4308 39.1543 51.4375H24.95C24.4275 51.4375 24 51.9297 24 52.5312V53.625C24 56.0312 25.71 58 27.8 58H58.2C60.29 58 62 56.0312 62 53.625V52.5312C62 51.9297 61.5725 51.4375 61.05 51.4375ZM58.2 26.2812C58.2 24.4766 56.9175 23 55.35 23H30.65C29.0825 23 27.8 24.4766 27.8 26.2812V49.25H58.2V26.2812ZM54.4 44.875H31.6V27.375H54.4V44.875Z" fill="white"/>
</svg>
