<svg width="180" height="24" viewBox="0 0 290 24" fill="none" xmlns="http://www.w3.org/2000/svg">
<path d="M10 0.337891C4.47714 0.337891 0 5.31276 0 11.4496C0 17.5865 4.47714 22.5613 10 22.5613C15.5229 22.5613 20 17.5865 20 11.4496C20 5.31276 15.5229 0.337891 10 0.337891ZM13.2258 11.4496C13.2258 13.4261 11.7787 15.034 10 15.034C8.22129 15.034 6.77419 13.4261 6.77419 11.4496C6.77419 9.47316 8.22129 7.86519 10 7.86519C11.7787 7.86519 13.2258 9.47316 13.2258 11.4496Z" fill="#2ECC71"/>
<path d="M40 0.337891C34.4771 0.337891 30 5.31276 30 11.4496C30 17.5865 34.4771 22.5613 40 22.5613C45.5229 22.5613 50 17.5865 50 11.4496C50 5.31276 45.5229 0.337891 40 0.337891ZM43.2258 11.4496C43.2258 13.4261 41.7787 15.034 40 15.034C38.2213 15.034 36.7742 13.4261 36.7742 11.4496C36.7742 9.47316 38.2213 7.86519 40 7.86519C41.7787 7.86519 43.2258 9.47316 43.2258 11.4496Z" fill="#2ECC71"/>
<path d="M70 0.337891C64.4771 0.337891 60 5.31276 60 11.4496C60 17.5865 64.4771 22.5613 70 22.5613C75.5229 22.5613 80 17.5865 80 11.4496C80 5.31276 75.5229 0.337891 70 0.337891ZM73.2258 11.4496C73.2258 13.4261 71.7787 15.034 70 15.034C68.2213 15.034 66.7742 13.4261 66.7742 11.4496C66.7742 9.47316 68.2213 7.86519 70 7.86519C71.7787 7.86519 73.2258 9.47316 73.2258 11.4496Z" fill="white" fill-opacity="0.5"/>
<path d="M100 0.337891C94.4771 0.337891 90 5.31276 90 11.4496C90 17.5865 94.4771 22.5613 100 22.5613C105.523 22.5613 110 17.5865 110 11.4496C110 5.31276 105.523 0.337891 100 0.337891ZM103.226 11.4496C103.226 13.4261 101.779 15.034 100 15.034C98.2213 15.034 96.7742 13.4261 96.7742 11.4496C96.7742 9.47316 98.2213 7.86519 100 7.86519C101.779 7.86519 103.226 9.47316 103.226 11.4496Z" fill="white" fill-opacity="0.5"/>
<path d="M130 0.337891C124.477 0.337891 120 5.31276 120 11.4496C120 17.5865 124.477 22.5613 130 22.5613C135.523 22.5613 140 17.5865 140 11.4496C140 5.31276 135.523 0.337891 130 0.337891ZM133.226 11.4496C133.226 13.4261 131.779 15.034 130 15.034C128.221 15.034 126.774 13.4261 126.774 11.4496C126.774 9.47316 128.221 7.86519 130 7.86519C131.779 7.86519 133.226 9.47316 133.226 11.4496Z" fill="white" fill-opacity="0.5"/>
<path d="M160 0.337891C154.477 0.337891 150 5.31276 150 11.4496C150 17.5865 154.477 22.5613 160 22.5613C165.523 22.5613 170 17.5865 170 11.4496C170 5.31276 165.523 0.337891 160 0.337891ZM163.226 11.4496C163.226 13.4261 161.779 15.034 160 15.034C158.221 15.034 156.774 13.4261 156.774 11.4496C156.774 9.47316 158.221 7.86519 160 7.86519C161.779 7.86519 163.226 9.47316 163.226 11.4496Z" fill="white" fill-opacity="0.5"/>
<path d="M190 0.337891C184.477 0.337891 180 5.31276 180 11.4496C180 17.5865 184.477 22.5613 190 22.5613C195.523 22.5613 200 17.5865 200 11.4496C200 5.31276 195.523 0.337891 190 0.337891ZM193.226 11.4496C193.226 13.4261 191.779 15.034 190 15.034C188.221 15.034 186.774 13.4261 186.774 11.4496C186.774 9.47316 188.221 7.86519 190 7.86519C191.779 7.86519 193.226 9.47316 193.226 11.4496Z" fill="white" fill-opacity="0.5"/>
<path d="M220 0.337891C214.477 0.337891 210 5.31276 210 11.4496C210 17.5865 214.477 22.5613 220 22.5613C225.523 22.5613 230 17.5865 230 11.4496C230 5.31276 225.523 0.337891 220 0.337891ZM223.226 11.4496C223.226 13.4261 221.779 15.034 220 15.034C218.221 15.034 216.774 13.4261 216.774 11.4496C216.774 9.47316 218.221 7.86519 220 7.86519C221.779 7.86519 223.226 9.47316 223.226 11.4496Z" fill="white" fill-opacity="0.5"/>
<path d="M250 1.44897C244.477 1.44897 240 6.42385 240 12.5607C240 18.6975 244.477 23.6724 250 23.6724C255.523 23.6724 260 18.6975 260 12.5607C260 6.42385 255.523 1.44897 250 1.44897ZM253.226 12.5607C253.226 14.5372 251.779 16.1451 250 16.1451C248.221 16.1451 246.774 14.5372 246.774 12.5607C246.774 10.5842 248.221 8.97627 250 8.97627C251.779 8.97627 253.226 10.5842 253.226 12.5607Z" fill="white" fill-opacity="0.5"/>
<path d="M280 1.44897C274.477 1.44897 270 6.42385 270 12.5607C270 18.6975 274.477 23.6724 280 23.6724C285.523 23.6724 290 18.6975 290 12.5607C290 6.42385 285.523 1.44897 280 1.44897ZM283.226 12.5607C283.226 14.5372 281.779 16.1451 280 16.1451C278.221 16.1451 276.774 14.5372 276.774 12.5607C276.774 10.5842 278.221 8.97627 280 8.97627C281.779 8.97627 283.226 10.5842 283.226 12.5607Z" fill="white" fill-opacity="0.5"/>
</svg>
