<svg width="86" height="81" viewBox="0 0 86 81" fill="none" xmlns="http://www.w3.org/2000/svg">
<ellipse cx="43" cy="40.5" rx="43" ry="40.5" fill="#3498DB"/>
<path d="M34.3701 54.0585C34.3712 54.4885 34.572 54.9095 34.9487 55.2677L36.7937 57.0238C37.1089 57.324 37.5363 57.5703 38.0381 57.7406C38.5398 57.9109 39.1003 58 39.6696 58H46.3315C46.9008 58 47.4612 57.9109 47.963 57.7406C48.4647 57.5703 48.8922 57.324 49.2074 57.0238L51.0523 55.2677C51.4289 54.9095 51.6302 54.4888 51.631 54.0585L51.6353 51.437H34.3647L34.3701 54.0585ZM24 35.0311C24 38.0641 25.7759 40.8312 28.7025 42.9455C30.4859 44.2341 33.2755 46.926 34.3388 49.1969C34.3431 49.2146 34.3464 49.2324 34.3507 49.2502H51.6493C51.6536 49.2324 51.6569 49.2153 51.6612 49.1969C52.7245 46.926 55.5141 44.2341 57.2975 42.9455C60.2241 40.8312 62 38.0641 62 35.0311C62 28.3737 53.4619 22.9796 42.9406 23.0001C31.9282 23.0212 24 28.6717 24 35.0311ZM43 29.5624C38.2381 29.5624 34.3636 32.0158 34.3636 35.0311C34.3636 35.6353 33.5907 36.1248 32.6364 36.1248C31.682 36.1248 30.9091 35.6353 30.9091 35.0311C30.9091 30.8093 36.3327 27.375 43 27.375C43.9543 27.375 44.7273 27.8644 44.7273 28.4687C44.7273 29.073 43.9543 29.5624 43 29.5624Z" fill="white"/>
</svg>
