<svg xmlns="http://www.w3.org/2000/svg" version="1.1" xmlns:xlink="http://www.w3.org/1999/xlink" xmlns:svgjs="http://svgjs.dev/svgjs" width="1440" height="560" preserveAspectRatio="none" viewBox="0 0 1440 560"><g mask="url(&quot;#SvgjsMask1002&quot;)" fill="none"><rect width="1440" height="560" x="0" y="0" fill="rgba(15, 26, 37, 1)"></rect><path d="M0,442.073C98.767,450.387,207.417,506.074,291.121,452.993C374.794,399.932,362.174,274.296,405.263,185.077C449.647,93.177,539.333,22.909,547.945,-78.783C557.376,-190.143,527.082,-308.842,454.272,-393.629C381.356,-478.538,266.745,-512.97,156.856,-534.202C54.092,-554.057,-52.97,-549.954,-149.853,-510.351C-241.3,-472.97,-307.667,-397.157,-368.614,-319.406C-427.027,-244.888,-476.116,-163.996,-494.205,-71.056C-512.91,25.049,-515.731,127.927,-472.804,215.922C-430.329,302.99,-348.631,364.692,-261.238,406.494C-180.318,445.199,-89.384,434.549,0,442.073" fill="#0c151e"></path><path d="M1440 1163.446C1555.06 1180.7469999999998 1676.115 1142.203 1769.912 1073.353 1861.189 1006.3530000000001 1897.106 893.188 1946.7939999999999 791.4449999999999 1997.871 686.859 2087.553 584.295 2064.467 470.21500000000003 2041.434 356.394 1925.163 289.332 1831.336 220.90499999999997 1753.868 164.40800000000002 1658.775 151.421 1571.852 110.95299999999997 1465.214 61.307000000000016 1377.395-69.93600000000004 1262.7-43.83000000000004 1149.58-18.08299999999997 1111.59 125.76600000000002 1057.01 228.13799999999998 1012.6410000000001 311.35900000000004 1002.51 402.73400000000004 976.3109999999999 493.332 945.0609999999999 601.398 847.108 707.281 888.167 812.014 928.906 915.932 1074.084 922.923 1168.231 982.88 1261.865 1042.511 1330.224 1146.9389999999999 1440 1163.446" fill="#121f2c"></path></g><defs><mask id="SvgjsMask1002"><rect width="1440" height="560" fill="#ffffff"></rect></mask></defs></svg>